<svg width="156" height="206" viewBox="0 0 156 206" xmlns="http://www.w3.org/2000/svg"><title>icon-mask</title><g fill="#3FAE2A" fill-rule="evenodd"><path d="M31.2 98.3c0 11.4 10.5 20.6 23.5 20.6 12.9 0 23.5-9.2 23.5-20.6 0-11.4-10.5-20.6-23.5-20.6-12.9 0-23.5 9.2-23.5 20.6zm13 0c0-5.1 4.7-9.2 10.5-9.2s10.5 4.1 10.5 9.2-4.7 9.2-10.5 9.2-10.5-4.1-10.5-9.2zM77.9 149.9c0 11.4 10.5 20.6 23.5 20.6 12.9 0 23.5-9.2 23.5-20.6 0-11.4-10.5-20.6-23.5-20.6s-23.5 9.2-23.5 20.6zm12.9 0c0-5.1 4.7-9.3 10.5-9.3s10.5 4.2 10.5 9.3c0 5.1-4.7 9.2-10.5 9.2-5.8.1-10.5-4.1-10.5-9.2z"/><path d="M154.4 70.2c0-5.2-6.9-7.2-11.1-4-42.9 32.9-85.9 65.7-128.8 98.6V83.5c0-6.6.5-12.1 6.3-16.9 1.9-1.6 4.7-2.6 7.2-3.4.7-.2 6-1.1 3.3-.8.2 0 .4-.1.7-.1 12.5 4.1 29.6 6 45.9 6 31.4 0 65.2-7.2 65.2-22.9V23.7C143.1 8 109.3.8 77.9.8 46.5.8 12.7 8 12.7 23.7v21.6c0 3.6 1.8 6.8 5 9.6-4.5 2.3-8.5 5.4-11.7 9.4-7.9 10-4.5 27.5-4.5 39v74c0 5.2 6.9 7.2 11.1 4 42.9-32.9 85.9-65.7 128.8-98.6v72.1c0 5.7 1 12.2-1 17.7-2.9 8-14.3 13.2-22.3 16-28 9.8-61.9 8.6-88.7-3.4-7.3-3.3-13.6 7.1-6.5 9.8 29.7 11.3 56.6 12.7 89.1 7.3 16.5-2.7 41.4-14.6 42.3-32.6 1.7-33 .2-66.4.1-99.4zM78 12.2c34.3 0 52.3 8.6 52.3 11.5 0 3-18 11.5-52.3 11.5s-52.3-8.6-52.3-11.5c0-3 18-11.5 52.3-11.5zM25.7 38.1c12.7 5.8 32.9 8.5 52.3 8.5 19.3 0 39.6-2.7 52.3-8.5v7.1c0 3-18 11.5-52.3 11.5s-52.3-8.6-52.3-11.5v-7.1z"/></g></svg>